<svg width="54" height="55" viewBox="0 0 54 55" fill="none" xmlns="http://www.w3.org/2000/svg">
<g id="Group 68">
<circle id="Ellipse 13" cx="27" cy="27.1147" r="27" fill="white"/>
<g id="Group 67">
<path id="Vector" d="M19 21.5286L15.757 18.2866L17.172 16.8716L20.414 20.1146H35.656C35.8119 20.1146 35.9656 20.151 36.1049 20.2209C36.2442 20.2909 36.3652 20.3924 36.4583 20.5175C36.5513 20.6425 36.6139 20.7876 36.6409 20.9411C36.668 21.0946 36.6588 21.2523 36.614 21.4016L34.214 29.4016C34.1523 29.6077 34.0257 29.7883 33.8531 29.9168C33.6806 30.0452 33.4712 30.1146 33.256 30.1146H21V32.1146H32V34.1146H20C19.7348 34.1146 19.4804 34.0092 19.2929 33.8217C19.1054 33.6342 19 33.3798 19 33.1146V21.5286ZM20.5 38.1146C20.1022 38.1146 19.7207 37.9565 19.4394 37.6752C19.1581 37.3939 19 37.0124 19 36.6146C19 36.2168 19.1581 35.8352 19.4394 35.5539C19.7207 35.2726 20.1022 35.1146 20.5 35.1146C20.8978 35.1146 21.2794 35.2726 21.5607 35.5539C21.842 35.8352 22 36.2168 22 36.6146C22 37.0124 21.842 37.3939 21.5607 37.6752C21.2794 37.9565 20.8978 38.1146 20.5 38.1146ZM32.5 38.1146C32.1022 38.1146 31.7207 37.9565 31.4394 37.6752C31.1581 37.3939 31 37.0124 31 36.6146C31 36.2168 31.1581 35.8352 31.4394 35.5539C31.7207 35.2726 32.1022 35.1146 32.5 35.1146C32.8978 35.1146 33.2794 35.2726 33.5607 35.5539C33.842 35.8352 34 36.2168 34 36.6146C34 37.0124 33.842 37.3939 33.5607 37.6752C33.2794 37.9565 32.8978 38.1146 32.5 38.1146Z" fill="#770015"/>
</g>
</g>
</svg>
