<svg version="1.2" xmlns="http://www.w3.org/2000/svg" viewBox="0 0 47 47" width="47" height="47">
	<title>Ellipse 45-svg</title>
	<defs>
		<clipPath clipPathUnits="userSpaceOnUse" id="cp1">
			<path d="m10.25 10.88h24v24h-24z"/>
		</clipPath>
	</defs>
	<style>
		.s0 { fill: #2b67b3 } 
		.s1 { fill: #ffffff } 
	</style>
	<path id="Ellipse 45" class="s0" d="m23.3 46.9c-12.8 0-23.1-10.3-23.1-23 0.1-12.7 10.3-23 23.1-23 12.7 0 22.9 10.3 22.9 23 0.1 12.7-10.2 23-22.9 23z"/>
	<g id="Clip-Path: Frame" clip-path="url(#cp1)">
		<g id="Frame">
			<path id="Vector" fill-rule="evenodd" class="s1" d="m30.9 14.9c0.8 0 1.4 0.6 1.4 1.3v15.4c0 0.7-0.6 1.3-1.4 1.3h-15.3c-0.8 0-1.3-0.6-1.3-1.3v-15.4c0-0.7 0.5-1.3 1.3-1.3zm-11.8 5.3q0.4-0.3 0.5-0.7 0.2-0.4 0.1-0.9-0.1-0.5-0.4-0.8-0.3-0.3-0.8-0.4-0.4-0.1-0.9 0.1-0.4 0.2-0.7 0.5-0.2 0.4-0.2 0.9 0 0.3 0.1 0.6 0.1 0.3 0.3 0.5 0.2 0.2 0.5 0.3 0.3 0.2 0.6 0.2 0.5-0.1 0.9-0.3zm0.5 10v-8.6h-2.7v8.6zm10 0v-4.7c0-2.3-0.5-4.1-3.2-4.1-1.3 0-2.2 0.7-2.6 1.4v-1.2h-2.5v8.6h2.6v-4.2c0-1.2 0.2-2.2 1.6-2.2 1.4 0 1.4 1.2 1.4 2.2v4.2z"/>
		</g>
	</g>
</svg>