<svg version="1.2" xmlns="http://www.w3.org/2000/svg" viewBox="0 0 46 47" width="46" height="47">
	<title>Ellipse 46-svg</title>
	<style>
		.s0 { fill: #e60022 } 
		.s1 { fill: #ffffff } 
	</style>
	<path id="Ellipse 46" class="s0" d="m23 46.9c-12.7 0-23-10.3-23-23 0-12.7 10.3-23 23-23 12.7 0 23 10.3 23 23 0 12.7-10.3 23-23 23z"/>
	<path id="Vector" class="s1" d="m23.4 14c-2.4-0.4-4.9 0.2-6.9 1.5-2 1.3-3.5 3.3-4.1 5.7-0.7 2.3-0.5 4.8 0.6 7 1 2.1 2.8 3.9 5 4.8q-0.1-1.1 0.2-2.2c0.2-0.9 1.3-5.5 1.3-5.5q-0.4-0.8-0.4-1.6c0-1.5 0.9-2.6 2-2.6q0.3 0 0.5 0.1 0.3 0.2 0.5 0.4 0.2 0.2 0.3 0.5 0 0.2 0 0.5c0 0.9-0.6 2.3-0.9 3.6q-0.1 0.3 0 0.7 0.1 0.3 0.3 0.6 0.3 0.3 0.6 0.5 0.3 0.1 0.7 0.1c1.9 0 3.2-2.4 3.2-5.3 0-2.2-1.5-3.9-4.2-3.9q-0.9 0-1.9 0.4-0.9 0.3-1.6 1-0.7 0.7-1 1.6-0.4 0.9-0.4 1.8c0 0.7 0.2 1.4 0.6 2q0.2 0.1 0.2 0.3 0.1 0.1 0 0.3c0 0.1-0.2 0.6-0.2 0.7q0 0.1-0.1 0.2 0 0.1-0.1 0.1-0.1 0-0.2 0 0 0-0.1 0c-1.4-0.6-2-2.1-2-3.8 0-2.9 2.3-6.3 7.1-6.3 3.8 0 6.3 2.8 6.3 5.8 0 3.9-2.2 6.8-5.4 6.8q-0.7 0-1.4-0.3-0.6-0.3-1-0.9c0 0-0.6 2.3-0.7 2.7q-0.4 1.2-1 2.2 1.4 0.4 2.8 0.4c1.3 0 2.6-0.3 3.8-0.8 1.3-0.5 2.4-1.2 3.3-2.2 0.9-0.9 1.6-2 2.2-3.2 0.5-1.2 0.7-2.5 0.7-3.8 0-2.4-0.9-4.8-2.5-6.6-1.5-1.8-3.7-3-6.1-3.3z"/>
</svg>