<svg width="54" height="55" viewBox="0 0 54 55" fill="none" xmlns="http://www.w3.org/2000/svg">
<g id="Group 72">
<circle id="Ellipse 15" cx="27" cy="27.1147" r="27" fill="white"/>
<g id="Group 71">
<path id="Vector" d="M28.576 32.3859L23.466 29.5989C22.9755 30.0858 22.3518 30.4165 21.6736 30.5495C20.9954 30.6824 20.2929 30.6116 19.6549 30.346C19.0169 30.0803 18.4718 29.6317 18.0883 29.0567C17.7049 28.4817 17.5003 27.806 17.5003 27.1149C17.5003 26.4237 17.7049 25.7481 18.0883 25.173C18.4718 24.598 19.0169 24.1494 19.6549 23.8838C20.2929 23.6181 20.9954 23.5473 21.6736 23.6802C22.3518 23.8132 22.9755 24.144 23.466 24.6309L28.576 21.8439C28.4007 21.0216 28.5273 20.1637 28.9326 19.4271C29.3378 18.6905 29.9947 18.1244 30.7831 17.8323C31.5714 17.5402 32.4386 17.5416 33.226 17.8363C34.0134 18.1311 34.6684 18.6993 35.0712 19.4373C35.474 20.1752 35.5978 21.0335 35.4198 21.8552C35.2418 22.6769 34.774 23.407 34.1019 23.9122C33.4298 24.4173 32.5984 24.6636 31.7596 24.6061C30.9208 24.5485 30.1308 24.191 29.534 23.5989L24.424 26.3859C24.5259 26.8665 24.5259 27.3632 24.424 27.8439L29.534 30.6309C30.1308 30.0387 30.9208 29.6812 31.7596 29.6237C32.5984 29.5661 33.4298 29.8124 34.1019 30.3176C34.774 30.8227 35.2418 31.5528 35.4198 32.3745C35.5978 33.1962 35.474 34.0545 35.0712 34.7924C34.6684 35.5304 34.0134 36.0987 33.226 36.3934C32.4386 36.6881 31.5714 36.6895 30.7831 36.3974C29.9947 36.1053 29.3378 35.5392 28.9326 34.8026C28.5273 34.066 28.4007 33.2081 28.576 32.3859Z" fill="#770015"/>
</g>
</g>
</svg>
