<svg width="88" height="89" viewBox="0 0 88 89" fill="none" xmlns="http://www.w3.org/2000/svg">
<g id="Group 198">
<g id="Group">
<path id="Vector" d="M68.2047 67.5377C66.9139 63.8424 64.3583 61.5187 60.493 60.7583C57.6396 60.1969 54.7696 59.7208 51.9161 59.1594C51.6348 59.1049 51.1288 59.3015 51.0437 58.7259C50.9681 58.2213 51.3605 58.1124 51.656 57.9181C52.3984 57.4278 53.2187 56.9635 53.7081 56.2458C54.7554 54.7108 56.1502 54.4455 57.8831 54.5237C60.5545 54.6445 62.3867 52.7092 62.3914 50.0112C62.3961 44.4185 62.3938 38.8258 62.3938 33.2332C62.3938 31.883 62.2496 30.547 61.9375 29.2323C59.6278 19.4706 50.8522 13.5131 40.9277 14.9723C32.3673 16.2301 25.5351 24.0755 25.4784 32.7357C25.4571 36.0923 25.4713 39.4465 25.4713 42.803C25.4736 45.7047 26.7999 47.6306 29.5068 48.6065C29.8803 48.7415 30.0316 48.9192 30.1238 49.3005C31.0198 53.0029 33.1049 55.8739 36.2634 57.9679C36.5873 58.1834 36.9182 58.3469 36.8095 58.8088C36.7078 59.2375 36.2941 59.1096 36.0412 59.157C33.4075 59.6616 30.7716 60.1614 28.1261 60.5901C23.7266 61.3031 20.8329 63.7406 19.4759 68.002C19.3742 68.3218 19.3388 68.6747 19.0362 69.004C17.5563 67.5164 16.0858 66.0407 14.6224 64.5602C13.646 63.5724 13.6531 62.9399 14.6555 61.9332C16.2324 60.3485 17.8021 58.7567 19.4003 57.1957C19.7974 56.8096 19.9085 56.5869 19.4452 56.1297C16.2253 52.9485 13.029 49.7411 9.84929 46.5196C9.4663 46.1311 9.28663 46.1596 8.92492 46.5267C7.02182 48.4715 5.09035 50.3925 3.16361 52.3136C1.68841 53.787 0.733319 55.5375 0.29596 57.5818C0.229765 57.8921 0.383432 58.2806 0.0477295 58.5222C0.0477295 59.1523 0.0477295 59.7847 0.0477295 60.4148C0.0997397 60.474 0.19194 60.5285 0.199032 60.5901C0.473267 63.1934 1.73333 65.2613 3.56315 67.0687C6.8256 70.2879 10.0431 73.5544 13.2843 76.7949C16.4262 79.9335 19.4995 83.1432 22.7431 86.1729C26.268 89.4631 31.9134 89.5176 35.5305 86.3932C38.001 84.2589 40.358 81.9967 42.7788 79.8056C43.1216 79.4977 43.0791 79.3058 42.7741 79.0215C42.2115 78.4957 41.6772 77.9366 41.0176 77.2805C41.488 77.2805 41.7457 77.2805 42.0034 77.2805C51.5355 77.2805 61.0675 77.2734 70.5972 77.2971C71.349 77.2994 71.4175 77.1336 71.1835 76.4562C70.1622 73.4928 69.2379 70.4963 68.2047 67.5377ZM57.0556 51.6101C57.3039 50.7147 57.4575 49.7885 57.8287 48.9618C58.0746 48.4146 58.876 48.5331 59.4363 48.0972C59.7058 51.2619 59.3654 51.7593 57.0556 51.6101ZM58.1053 45.5058C58.1053 44.6838 58.1053 43.9305 58.1053 43.1796C58.1053 42.4145 58.1053 41.6494 58.1053 40.7611C59.9469 42.1089 59.9469 44.2977 58.1053 45.5058ZM29.7195 45.5389C28.8968 45.0249 28.4689 44.3853 28.3767 43.5373C28.2538 42.4027 28.6179 41.4765 29.7195 40.7706C29.7195 42.4003 29.7195 43.8855 29.7195 45.5389ZM30.3579 36.007C29.9749 35.9951 29.7266 36.0117 29.7148 36.5305C29.6865 37.6888 29.6534 37.6865 28.3815 38.0986C28.3673 34.1191 27.9867 30.1514 29.8756 26.4277C31.5281 23.173 33.93 20.6953 37.2114 19.12C46.7529 14.5388 57.9374 20.636 59.3441 31.1581C59.6538 33.47 59.4008 35.7891 59.5048 38.1152C58.5403 37.9375 57.8382 37.6272 58.0958 36.4665C58.2235 35.8886 57.7412 36.0046 57.4268 36.0141C54.7861 36.1017 52.266 35.6233 49.8711 34.4744C47.8806 33.5174 46.2257 32.1317 44.7103 30.5517C43.9349 29.7416 43.9041 29.7392 43.1547 30.5328C41.0554 32.7499 38.6558 34.4815 35.6913 35.3627C33.9442 35.8814 32.1664 36.0591 30.3579 36.007ZM32.7645 47.929C32.4714 46.4604 32.6085 44.9586 32.5967 43.471C32.5872 42.2108 32.6439 40.9459 32.5754 39.6881C32.5376 38.9964 32.8165 38.814 33.4217 38.7477C36.852 38.3734 39.897 37.0516 42.6228 34.9458C43.0696 34.5999 43.4313 33.913 43.9467 33.9604C44.3935 34.0006 44.7812 34.5999 45.2091 34.9316C47.9255 37.0445 50.9704 38.3734 54.4031 38.7477C54.9965 38.8116 55.2636 38.9893 55.2447 39.681C55.1856 41.9147 55.2164 44.1508 55.2116 46.387C55.2093 47.9882 54.7601 49.4782 54.1218 50.9303C53.8901 51.4585 53.5922 51.6788 52.9752 51.6693C50.2305 51.629 47.4834 51.667 44.7363 51.6385C44.1122 51.6314 43.838 51.7238 43.8545 52.4581C43.8971 54.5545 43.8592 54.5569 45.9325 54.5569C47.6631 54.5569 49.396 54.5569 51.3227 54.5569C48.6442 56.7859 45.734 57.7002 42.5235 57.2525C37.3485 56.5277 33.7929 53.0598 32.7645 47.929ZM47.968 59.6402C46.5401 61.0733 45.2115 62.4093 43.942 63.6837C42.6654 62.4022 41.3249 61.0544 39.9537 59.6781C42.5826 60.4053 45.228 60.4385 47.968 59.6402ZM8.32208 51.179C9.39302 50.1557 9.36701 50.1272 10.4025 51.1648C12.0597 52.8253 13.7193 54.4858 15.3742 56.1487C15.5302 56.3074 15.743 56.4258 15.8045 56.7432C15.3813 57.153 14.977 57.6623 14.464 57.9987C14.1259 58.219 13.9297 57.7144 13.717 57.5036C11.925 55.7341 10.159 53.9386 8.36463 52.1739C7.9982 51.8138 7.87763 51.603 8.32208 51.179ZM34.7149 83.2924C33.1971 84.799 31.4666 85.8033 29.443 85.7512C27.294 85.7796 25.6178 85.0666 24.2467 83.6975C17.8399 77.3018 11.4309 70.9109 5.06671 64.4725C2.0974 61.4666 2.35273 56.8096 5.51589 54.0097C5.74994 53.8036 5.86578 53.7349 6.11401 53.986C8.06912 55.9615 10.0313 57.9276 12.0077 59.8795C12.2961 60.1637 12.185 60.3106 11.9912 60.5759C10.5585 62.5278 10.6956 64.6834 12.3954 66.3983C15.7004 69.7359 19.022 73.0617 22.353 76.3732C24.067 78.0788 26.1781 78.2209 28.1545 76.7665C28.502 76.5106 28.6628 76.5699 28.9228 76.8304C30.8378 78.7633 32.7621 80.6868 34.6912 82.6055C34.9371 82.8518 35.0033 83.0058 34.7149 83.2924ZM38.4573 79.8577C38.1145 80.1135 37.8213 80.4333 37.5022 80.7176C37.4029 80.8076 37.2894 80.881 37.1617 80.9758C37.001 80.8265 36.8733 80.7152 36.7551 80.5968C34.8756 78.7136 33.0033 76.8209 31.1073 74.9543C30.755 74.6085 30.7598 74.4356 31.1238 74.0969C32.4997 72.8153 32.4832 72.8011 33.8165 74.1395C35.3697 75.7005 36.9111 77.2757 38.4951 78.806C38.9419 79.2418 38.9324 79.5024 38.4573 79.8577ZM66.5239 74.3811C57.3393 74.3858 48.1548 74.3787 38.9703 74.4001C38.3391 74.4024 37.9159 74.2082 37.488 73.7676C36.0341 72.2658 34.5329 70.8114 33.0742 69.3119C32.729 68.9566 32.5376 68.9092 32.1451 69.2764C30.3673 70.9369 28.5517 72.5572 26.7479 74.1916C25.7526 75.0941 25.1261 75.0799 24.1757 74.1371C23.3838 73.3507 22.6107 72.5429 21.7998 71.7755C21.4807 71.4722 21.4216 71.1951 21.5681 70.7924C21.8684 69.961 22.1071 69.1082 22.4145 68.2791C23.405 65.6143 25.3176 64.0343 28.1025 63.5203C31.1025 62.9684 34.112 62.4591 37.105 61.8811C37.6015 61.7863 37.8899 61.8882 38.2209 62.2222C39.949 63.9775 41.7103 65.6996 43.4242 67.4667C43.8238 67.8788 44.0365 67.8575 44.4219 67.4595C46.0578 65.7754 47.7505 64.1433 49.377 62.452C49.8617 61.9498 50.2778 61.7769 51.0012 61.9237C54.1005 62.5515 57.2306 63.0418 60.3276 63.679C62.5995 64.148 64.2756 65.5266 65.1385 67.6727C66.0085 69.8283 66.6728 72.0692 67.4246 74.265C67.0889 74.4569 66.8005 74.3811 66.5239 74.3811Z" fill="#1C1C1C"/>
<path id="Vector_2" d="M87.9261 4.96418C87.9095 2.86308 86.8859 1.45366 84.9473 0.700389C84.848 0.662489 84.718 0.67907 84.7345 0.515625C77.4058 0.515625 70.0748 0.515625 62.746 0.515625C62.72 0.560632 62.7058 0.634064 62.668 0.648276C60.3725 1.56025 59.493 2.83465 59.493 5.27212C59.4907 8.6571 59.5923 12.0468 59.4623 15.4247C59.3465 18.4685 61.4292 20.6573 64.4836 20.4631C65.4908 20.3991 66.5026 20.4536 67.5333 20.4536C67.044 23.3364 66.5782 26.0913 66.0889 28.9741C66.4624 28.7632 66.7106 28.6353 66.9447 28.4885C70.1882 26.4584 73.5003 24.5279 76.6469 22.3604C78.7132 20.9368 80.7983 20.2428 83.3279 20.4109C86.0348 20.591 87.8882 18.6936 87.9213 15.979C87.9686 12.3074 87.9544 8.63578 87.9261 4.96418ZM85.0561 15.7942C85.0537 17.0425 84.5052 17.6774 83.2735 17.5305C80.2475 17.1705 77.6564 17.9972 75.2474 19.8424C73.6705 21.0505 71.888 21.9885 70.018 23.1587C70.3112 21.3703 70.531 19.7572 70.8596 18.1677C70.992 17.5281 70.7438 17.5447 70.2875 17.5471C68.2284 17.5613 66.1669 17.5566 64.1078 17.5518C62.895 17.5495 62.3962 17.0473 62.3962 15.8321C62.3914 12.2482 62.3914 8.66657 62.3962 5.08262C62.3985 3.88165 62.8572 3.40553 64.0368 3.40553C70.4743 3.40079 76.9117 3.40079 83.3492 3.40553C84.5667 3.40553 85.056 3.89349 85.0584 5.12762C85.0655 8.68552 85.0655 12.2387 85.0561 15.7942Z" fill="#1C1C1C"/>
<path id="Vector_3" d="M4.77358 40.316C5.08327 40.8489 5.31023 40.785 5.74995 40.5126C7.6696 39.3282 9.61289 38.1841 11.5396 37.0091C12.1661 36.6278 13.1969 36.3814 13.2938 35.8011C13.3884 35.2373 12.6318 34.548 12.2985 33.8895C12.0763 33.4513 11.8895 33.4157 11.4734 33.6858C10.4758 34.3324 9.43558 34.9128 8.30554 35.5855C8.30554 35.2894 8.28899 35.2018 8.30791 35.126C13.3245 15.7091 33.4501 3.79659 52.8546 8.75206C53.5095 8.91787 54.3984 9.39163 54.7672 9.13343C55.2353 8.80417 55.2518 7.8614 55.5237 7.20762C55.7436 6.67701 55.6254 6.50409 55.0627 6.34302C48.9066 4.57591 42.6748 4.20639 36.41 5.51395C23.0954 8.29252 13.5562 15.9342 7.72397 28.2305C6.65304 30.4879 5.91071 32.8662 5.25349 35.4647C4.67901 34.5172 4.20856 33.7142 3.7121 32.9254C3.33384 32.3237 3.12816 31.343 2.54896 31.2104C1.9272 31.0683 1.30781 31.8784 0.645858 32.1911C0.215592 32.3924 0.144669 32.5961 0.414176 33.0343C1.88937 35.4458 3.35275 37.869 4.77358 40.316Z" fill="#1C1C1C"/>
<path id="Vector_4" d="M86.6518 31.615C84.2617 30.2174 81.8882 28.7938 79.5335 27.337C79.03 27.0243 78.8219 27.0385 78.5146 27.5739C77.3917 29.5305 76.2049 31.4515 75.0512 33.3916C74.6753 34.024 73.9377 34.7749 74.0725 35.2866C74.2096 35.8077 75.2332 36.0754 75.8337 36.5018C76.2498 36.7979 76.4413 36.6984 76.6777 36.2838C77.3562 35.0995 78.0772 33.9411 78.8148 32.7165C80.0324 36.208 80.6683 39.7233 80.7605 43.312C80.978 51.6974 78.6754 59.3391 73.81 66.192C73.4152 66.7463 72.5831 67.3077 72.7273 67.8454C72.881 68.4115 73.7462 68.7692 74.264 69.2572C74.6469 69.6172 74.8597 69.5959 75.193 69.16C77.2238 66.5189 78.9354 63.6929 80.2688 60.6372C83.0111 54.3528 84.1057 47.789 83.4981 40.9574C83.2333 37.9941 82.6589 35.0829 81.5879 31.9703C82.491 32.5057 83.1861 32.9249 83.8858 33.33C84.4958 33.6853 85.2121 34.4007 85.6991 34.2704C86.205 34.1354 86.4651 33.1571 86.8835 32.5862C87.2239 32.1243 87.1507 31.9064 86.6518 31.615Z" fill="#1C1C1C"/>
<path id="Vector_5" d="M81.3964 6.18169C76.7037 6.20301 72.0086 6.18643 67.3158 6.20301C66.6137 6.20538 65.6799 5.87612 65.2732 6.35698C64.9305 6.76441 65.2141 7.67165 65.1503 8.35149C65.0912 8.98158 65.3442 9.10713 65.9257 9.10002C68.531 9.07159 71.1339 9.08817 73.7391 9.08817C75.8857 9.08817 78.0323 9.08817 80.1789 9.08817C82.2688 9.08817 82.2309 9.08818 82.2759 6.99181C82.2924 6.25512 82.0111 6.17932 81.3964 6.18169Z" fill="#1C1C1C"/>
<path id="Vector_6" d="M75.8077 11.8644C72.9779 11.8905 70.1457 11.8763 67.3135 11.8763C65.1007 11.8763 65.122 11.8763 65.148 14.1219C65.1551 14.6714 65.3276 14.7922 65.8383 14.7827C67.4955 14.7543 69.1551 14.7709 70.8147 14.7709C72.0157 14.7709 73.2166 14.7709 74.4176 14.7709C76.6068 14.7709 76.5784 14.7709 76.5902 12.5916C76.5926 11.9615 76.3704 11.8597 75.8077 11.8644Z" fill="#1C1C1C"/>
<path id="Vector_7" d="M80.7936 11.874C79.3799 11.874 79.3799 11.874 79.3799 13.2882C79.3799 14.7758 79.3799 14.7758 80.8267 14.7758C82.2593 14.7758 82.2593 14.7758 82.2593 13.3403C82.2593 11.874 82.2593 11.874 80.7936 11.874Z" fill="#1C1C1C"/>
</g>
</g>
</svg>
