<svg width="66" height="89" viewBox="0 0 66 89" fill="none" xmlns="http://www.w3.org/2000/svg">
<g id="Group 196">
<g id="Group">
<path id="Vector" d="M63.47 28.1377C62.2394 26.5896 60.9865 25.0604 59.7043 23.5553C58.9361 22.6529 58.4531 21.6507 58.3397 20.4762C58.1489 18.5079 57.9289 16.5413 57.7949 14.5695C57.5577 11.0926 54.9711 8.30457 51.5166 7.91366C49.7824 7.71734 48.0465 7.53136 46.3072 7.40909C44.5765 7.28683 43.0899 6.76504 41.6995 5.62502C39.3707 3.71524 37.3443 1.31122 34.2438 0.515625C33.3845 0.515625 32.5252 0.515625 31.6658 0.515625C29.4693 1.10113 27.8658 2.61656 26.1867 4.01833C25.2844 4.77087 24.3769 5.51653 23.4643 6.25358C22.7098 6.86492 21.8436 7.16972 20.8725 7.25755C18.652 7.45903 16.4314 7.67946 14.2144 7.93088C11.2874 8.26324 8.62177 10.9548 8.29866 13.891C8.05633 16.0832 7.82603 18.2788 7.63525 20.4762C7.54416 21.5129 7.2073 22.4221 6.55248 23.2195C5.26348 24.7917 3.97447 26.3657 2.67858 27.9345C0.296495 30.819 0.250091 34.3716 2.58749 37.2888C3.84041 38.8542 5.12426 40.3954 6.4064 41.9367C7.0234 42.6789 7.49088 43.4952 7.594 44.4613C7.79681 46.3693 7.9893 48.2808 8.13195 50.1958C8.431 54.1996 10.722 56.905 14.4017 57.4578C15.7388 57.6593 17.0966 57.7316 18.5214 57.8693C18.4097 58.1414 18.3478 58.2981 18.2825 58.4514C15.2971 65.6118 12.3169 72.7739 9.3144 79.9274C8.97582 80.7333 8.86583 81.4721 9.4983 82.1558C10.1067 82.8119 10.844 82.7619 11.6381 82.5329C13.9909 81.8544 16.3627 81.2345 18.707 80.5301C19.2673 80.3614 19.5113 80.4647 19.776 80.9572C20.9636 83.1718 22.1959 85.364 23.3938 87.5751C23.8011 88.3277 24.3597 88.7703 25.2448 88.6773C26.1454 88.5826 26.5252 87.9264 26.8346 87.1842C29.9849 79.626 33.1387 72.0696 36.2959 64.5131C36.4025 64.2565 36.4592 63.9775 36.717 63.7916C38.7433 62.3399 40.5789 60.647 42.5261 59.0972C42.9094 58.7924 43.3391 58.5754 43.7825 58.3687C44.4322 58.0639 44.7604 58.2086 45.0492 58.9129C46.9346 63.5332 48.8767 68.1329 50.7861 72.7446C51.7005 74.9541 52.7248 77.117 53.4896 79.3867C53.4913 79.3867 53.4913 79.3884 53.493 79.3884C53.2593 79.5916 53.0221 79.3918 52.8193 79.3367C51.1419 78.8821 49.4748 78.3965 47.8025 77.9212C45.9652 77.3994 44.9564 77.8127 44.0351 79.4762C43.1638 81.0502 42.3044 82.6328 41.4279 84.205C41.3299 84.3824 41.3076 84.6614 41.0068 84.6717C39.6714 81.4842 38.3343 78.3 37.0075 75.1108C36.7892 74.5855 36.5297 74.1292 35.9075 74.031C35.3885 73.9484 34.9313 74.0723 34.6099 74.5063C34.2473 74.9937 34.3006 75.5086 34.5274 76.0476C36.1034 79.8103 37.6726 83.5765 39.2366 87.3444C39.5425 88.0814 39.9825 88.6256 40.8453 88.6824C41.7476 88.7427 42.2615 88.233 42.6585 87.5011C43.8306 85.3399 45.0337 83.1959 46.1904 81.0278C46.4585 80.525 46.6682 80.339 47.2955 80.5301C49.6398 81.2448 52.0133 81.8579 54.3678 82.5346C55.1619 82.7619 55.8992 82.8102 56.5042 82.1489C57.1366 81.4583 57.0077 80.7023 56.676 79.9102C54.3249 74.3031 51.9875 68.6926 49.6449 63.0821C48.9265 61.36 48.2081 59.6379 47.4691 57.8659C48.7976 57.7385 50.0213 57.6041 51.2467 57.5043C54.3833 57.2494 57.0919 54.9194 57.6093 51.8094C57.9616 49.6946 58.1128 47.5438 58.2933 45.4032C58.405 44.079 58.7625 42.9011 59.6476 41.8713C60.9366 40.3713 62.181 38.8335 63.4218 37.2957C65.6888 34.4887 65.7128 30.9602 63.47 28.1377ZM53.4896 79.4848C53.4965 79.4573 53.5016 79.4297 53.5085 79.4022C53.536 79.4246 53.5618 79.447 53.5893 79.4693C53.5549 79.4745 53.5223 79.4797 53.4896 79.4848ZM24.9234 84.8525C23.8991 82.9841 22.9435 81.2276 21.9776 79.4779C21.0736 77.8385 20.0132 77.4046 18.2 77.9195C16.2922 78.4619 14.3845 79.0027 12.3462 79.583C13.5492 76.7002 14.7007 73.9449 15.8523 71.1896C17.5675 67.0807 19.2982 62.9787 20.9842 58.8578C21.2369 58.2396 21.4878 58.0829 22.1134 58.3395C22.7338 58.5926 23.2804 58.9319 23.7891 59.3503C25.1589 60.4817 26.5545 61.5821 27.8882 62.7549C29.4075 64.0895 31.1313 64.8661 33.2607 64.8902C30.4713 71.565 27.718 78.1588 24.9234 84.8525ZM61.1893 35.8268C60.177 37.0718 59.218 38.3686 58.118 39.531C56.3632 41.3856 55.6551 43.5882 55.5537 46.08C55.4936 47.5386 55.3441 48.9955 55.1619 50.4455C54.7992 53.3455 53.237 54.73 50.2688 54.9401C48.3009 55.0796 46.3347 55.257 44.3754 55.4929C42.9885 55.6599 41.7631 56.2644 40.6837 57.1702C39.1043 58.4962 37.5059 59.7981 35.9161 61.112C35.0722 61.8095 34.1167 62.2038 32.9462 62.1831C31.8978 62.2193 30.944 61.8112 30.1001 61.1189C28.7475 60.0133 27.3365 58.9698 26.0715 57.7712C24.2325 56.0284 22.0412 55.3999 19.5973 55.2707C17.9714 55.1846 16.349 54.9952 14.7334 54.7851C12.5077 54.4958 11.0331 52.8082 10.8526 50.554C10.679 48.3842 10.4229 46.2212 10.2012 44.0566C10.0689 42.7667 9.5533 41.6302 8.74896 40.6314C7.47198 39.0471 6.17438 37.4817 4.87849 35.9146C3.08075 33.7379 3.06701 31.6645 4.84756 29.4913C6.04548 28.0292 7.22105 26.5465 8.45162 25.1103C9.57392 23.7998 10.1651 22.2913 10.3233 20.5916C10.5089 18.594 10.6979 16.5981 10.8715 14.6005C11.064 12.3704 12.8394 10.6707 15.096 10.4864C17.2616 10.3091 19.4202 10.0594 21.5823 9.83894C22.9916 9.69601 24.205 9.09845 25.2861 8.20641C26.8535 6.91314 28.4227 5.61986 29.9918 4.32486C31.8772 2.76982 34.0273 2.72849 35.9367 4.25769C37.4337 5.45798 38.9255 6.66688 40.3692 7.92916C41.904 9.26893 43.6725 9.88199 45.6851 9.99909C47.567 10.1076 49.4507 10.2884 51.3189 10.5381C53.6391 10.8464 55.0278 12.6494 55.2237 15.3496C55.3664 17.3214 55.5434 19.2914 55.7737 21.2546C55.9456 22.708 56.597 23.972 57.5405 25.0931C58.7574 26.5396 59.9484 28.0086 61.1549 29.4654C62.9148 31.5974 62.932 33.6845 61.1893 35.8268Z" fill="#1C1C1C"/>
<path id="Vector_2" d="M30.5298 12.3979C29.6876 12.5012 29.2098 13.0368 29.2614 13.8203C29.3112 14.5832 29.8664 15.0361 30.7429 15.0086C31.4011 14.9879 32.0577 14.9431 32.8569 14.9018C33.7437 14.9483 34.768 14.9672 35.7924 15.1188C46.0632 16.6325 52.9276 27.2129 50.1468 37.275C47.5327 46.7378 38.2054 52.2898 28.6255 49.903C20.1438 47.79 14.2006 39.6894 15.4123 30.4401C16.2441 24.0856 19.6987 19.4705 25.4287 16.586C26.4032 16.0952 26.7332 15.4425 26.3929 14.7003C26.0251 13.8996 25.2809 13.7205 24.2738 14.1889C15.9055 18.0842 11.1104 27.6383 12.9752 36.705C15.2095 47.5661 25.5783 54.6731 36.5091 52.8374C47.4845 50.9948 55.0381 40.2284 53.1149 29.1692C51.257 18.4734 41.2939 11.0771 30.5298 12.3979Z" fill="#1C1C1C"/>
<path id="Vector_3" d="M22.7149 29.9563C21.1836 30.0597 19.8911 30.807 19.2123 32.3672C18.5214 33.955 18.7603 35.4825 19.9702 36.7379C21.8797 38.72 23.8286 40.6642 25.8 42.5843C27.3708 44.1152 29.7375 44.16 31.2929 42.6222C35.5346 38.4307 39.7453 34.2064 43.9269 29.9546C45.032 28.8318 45.3052 27.4146 44.7656 25.894C43.7636 23.0732 40.2987 22.3 38.1263 24.4474C35.0877 27.4507 32.0783 30.4833 29.0758 33.521C28.7028 33.8982 28.4828 33.9963 28.0772 33.5469C27.3296 32.7185 26.5115 31.9505 25.7175 31.1635C24.9286 30.3834 23.9713 29.9977 22.7149 29.9563ZM27.3622 36.5708C28.2645 37.468 28.8678 37.4698 29.7735 36.5622C33.137 33.199 36.4919 29.8289 39.8553 26.4657C40.5978 25.7235 41.3609 25.6632 41.959 26.278C42.2048 26.5311 42.3629 26.8308 42.3337 27.2027C42.3766 27.6746 42.1394 28.0156 41.8232 28.3307C37.774 32.3845 33.7299 36.4434 29.6756 40.4937C28.9125 41.2549 28.2096 41.2497 27.4465 40.4937C25.6367 38.6976 23.8355 36.8929 22.0412 35.0812C21.3658 34.3976 21.3314 33.6175 21.9054 33.0371C22.4606 32.4775 23.2941 32.5171 23.9558 33.168C25.1022 34.2942 26.2262 35.4394 27.3622 36.5708Z" fill="#1C1C1C"/>
</g>
</g>
</svg>
