<svg width="88" height="89" viewBox="0 0 88 89" fill="none" xmlns="http://www.w3.org/2000/svg">
<g id="Group">
<path id="Vector" d="M68.5196 30.039C60.6771 26.2728 52.8446 22.4865 45.0146 18.6977C44.3423 18.3722 43.7325 18.3797 43.0628 18.7278C41.7932 19.3864 40.4936 19.9874 39.2015 20.6059C32.6161 23.7711 26.0282 26.9364 19.4428 30.1041C18.778 30.4246 18.5356 30.968 18.5381 31.6992C18.5531 39.9604 18.5731 48.2241 18.5331 56.4853C18.5281 57.7173 18.9279 58.416 20.0526 58.9493C27.4127 62.4451 34.7604 65.971 42.0731 69.5694C43.4201 70.233 44.4673 70.3081 45.8744 69.612C53.2795 65.9409 60.7496 62.395 68.2097 58.8391C69.1594 58.3859 69.5243 57.7674 69.5118 56.7181C69.4668 52.5863 69.4943 48.457 69.4943 44.3251C69.4993 44.3251 69.5018 44.3251 69.5068 44.3251C69.5068 40.1006 69.4968 35.8762 69.5143 31.6492C69.5193 30.8704 69.2369 30.3821 68.5196 30.039ZM43.5376 21.4473C43.82 21.3121 44.0599 21.2019 44.4073 21.3747C47.2164 22.7544 50.0405 24.1067 52.8721 25.4765C52.6597 25.807 52.3373 25.8646 52.0649 25.9973C45.6494 29.0949 39.2315 32.1825 32.826 35.2977C32.2312 35.5857 31.7614 35.5807 31.1765 35.2877C28.6898 34.0406 26.1806 32.8411 23.6789 31.6241C23.489 31.5315 23.3015 31.4313 23.0716 31.3111C29.9294 28.0081 36.7348 24.7277 43.5376 21.4473ZM42.7054 66.9025C38.6866 64.9693 34.7729 63.0862 30.8591 61.2031C27.8901 59.7732 24.9285 58.3283 21.9495 56.9185C21.4271 56.6706 21.2347 56.3751 21.2372 55.7841C21.2597 48.6798 21.2597 41.5756 21.2397 34.4688C21.2372 33.7451 21.3047 33.5173 22.0769 33.8954C28.7323 37.1407 35.4002 40.3536 42.0706 43.5664C42.4454 43.7467 42.7229 43.8719 42.7204 44.4078C42.6979 51.8551 42.7054 59.3049 42.7054 66.9025ZM43.6451 41.2951C40.841 39.9279 38.0319 38.5731 35.0878 37.1458C36.7548 36.3394 38.2993 35.5932 39.8438 34.847C45.0196 32.3553 50.2005 29.8712 55.3663 27.3571C55.9037 27.0966 56.3035 27.1117 56.8309 27.3746C59.5 28.6993 62.1917 29.9764 65.0382 31.3512C61.6393 32.9914 58.4404 34.5364 55.2414 36.079C51.7575 37.7593 48.2711 39.4396 44.7847 41.1173C44.4273 41.2901 44.0874 41.5105 43.6451 41.2951ZM66.3703 56.7582C59.4475 60.0812 52.5297 63.4167 45.6094 66.7447C45.5595 66.7698 45.492 66.7597 45.342 66.7773C45.342 59.2749 45.347 51.8301 45.3295 44.3852C45.3295 43.9595 45.497 43.7817 45.8269 43.624C52.6247 40.3586 59.425 37.0932 66.2129 33.8077C66.7352 33.5548 66.8377 33.645 66.8377 34.1909C66.8277 41.4479 66.8277 48.7049 66.8402 55.9619C66.8377 56.355 66.7377 56.5829 66.3703 56.7582Z" fill="#1C1C1C"/>
<path id="Vector_2" d="M87.521 38.0622C87.0311 34.5564 86.0939 31.1758 84.7743 27.8979C84.427 27.0315 83.7347 26.6884 83.0074 26.9614C82.2926 27.2293 81.9977 27.9831 82.2826 28.832C82.3626 29.0674 82.4751 29.2902 82.565 29.5231C85.919 38.4103 86.2889 47.4277 83.5522 56.5178C78.5863 73.0126 63.9335 84.7019 46.7939 85.8338C38.3716 86.3897 30.4641 84.5316 23.144 80.2796C19.84 78.3589 16.8585 76.0225 14.0444 73.0551C16.9185 73.3631 19.5526 73.6336 22.1843 73.9366C23.2589 74.0618 23.9887 73.6686 24.1062 72.8122C24.2111 72.061 23.6488 71.4124 22.6691 71.3047C18.7954 70.879 14.9191 70.4709 11.0403 70.0902C9.89819 69.9775 9.46083 70.4158 9.34087 71.5476C9.12344 73.566 8.88101 75.5818 8.65858 77.6001C8.44865 79.4933 8.23372 81.3889 8.05877 83.2871C7.9763 84.1685 8.50863 84.8271 9.26089 84.8972C9.96567 84.9623 10.5555 84.4415 10.6754 83.5876C10.8129 82.5984 10.9179 81.6043 11.0278 80.6101C11.2453 78.6669 11.4552 76.7262 11.6676 74.783C12.04 74.7905 12.1425 75.0559 12.3049 75.2187C23.4489 86.267 36.7771 90.6367 52.2072 87.8922C64.0934 85.7787 73.5029 79.4933 80.2933 69.5043C86.7462 60.0035 89.1155 49.4686 87.521 38.0622Z" fill="#1C1C1C"/>
<path id="Vector_3" d="M5.37475 59.3C2.24324 50.9762 1.84837 42.5072 4.09265 33.9155C9.14355 14.586 27.7676 1.53442 47.6213 3.36495C56.521 4.18631 64.356 7.49929 71.1388 13.3189C72.151 14.1853 73.1207 15.0994 74.0779 16.1887C73.1407 16.086 72.3384 15.9958 71.5337 15.9082C69.5493 15.6928 67.5674 15.4575 65.5806 15.2696C64.6634 15.1845 64.0436 15.6703 63.9486 16.4366C63.8561 17.1803 64.3959 17.7763 65.3082 17.889C66.6077 18.0517 67.9098 18.1945 69.2119 18.3372C71.7836 18.6227 74.3553 18.9257 76.9295 19.1786C78.1466 19.2963 78.5689 18.9157 78.7114 17.7112C78.9513 15.6953 79.1837 13.677 79.4037 11.6587C79.6161 9.70293 79.8285 7.74469 79.991 5.78395C80.0635 4.91251 79.5661 4.34407 78.8139 4.27145C78.0666 4.19632 77.4818 4.69966 77.3818 5.54606C77.1819 7.25138 77.0044 8.96171 76.8095 10.6695C76.6645 11.9466 76.5046 13.2213 76.3446 14.5434C76.1797 14.4483 76.1172 14.4283 76.0747 14.3882C65.4306 3.50017 52.5572 -1.06488 37.472 0.998532C28.1425 2.27314 20.0026 6.28979 13.3647 12.9483C2.0533 24.2946 -2.0279 37.9897 0.928662 53.7633C1.37602 56.1523 2.14328 58.4611 3.013 60.7324C3.39538 61.734 4.06016 62.0971 4.8774 61.7866C5.61467 61.5086 5.87959 60.7499 5.56718 59.8284C5.5072 59.6506 5.44222 59.4753 5.37475 59.3Z" fill="#1C1C1C"/>
<path id="Vector_4" d="M35.4126 47.1824C33.2583 46.1407 31.099 45.114 28.9422 44.0848C28.6623 43.9521 28.3899 43.7893 27.8675 43.8218C27.4377 43.8644 26.9753 44.1824 26.8154 44.7759C26.6229 45.4996 26.9178 46.0605 27.6001 46.3911C29.8094 47.4629 32.0187 48.5346 34.233 49.5964C35.2402 50.0797 36.0049 49.8894 36.3798 49.088C36.7322 48.3293 36.4073 47.6657 35.4126 47.1824Z" fill="#1C1C1C"/>
</g>
</svg>
