<svg width="113" height="89" viewBox="0 0 113 89" fill="none" xmlns="http://www.w3.org/2000/svg">
<g id="Group 197">
<g id="Group">
<path id="Vector" d="M112.531 42.3127C112.531 41.6095 112.109 41.1803 111.413 41.1011C110.811 41.0311 110.201 41.0159 109.596 40.9854C105.789 40.8058 102.091 40.1086 98.5273 38.7082C97.6067 38.346 97.2269 37.935 97.233 36.8482C97.2907 26.8414 97.2633 16.8316 97.2725 6.82485C97.2725 5.98157 97.1813 5.16264 96.917 4.36807C96.0784 1.83518 94.0852 0.516978 91.0439 0.516978C76.9885 0.513934 62.9392 0.516978 48.8869 0.516978C47.2553 0.516978 45.6207 0.516978 43.9891 0.516978C31.2646 0.526111 18.5431 0.513934 5.82154 0.556554C2.84093 0.565688 0.449755 3.05291 0.446717 6.02724C0.437602 24.7499 0.437602 43.4726 0.446717 62.1923C0.449755 65.2092 2.94423 67.6721 5.94003 67.6752C10.7254 67.6782 15.5108 67.6752 20.2962 67.6752C37.1954 67.6752 54.0977 67.6813 70.9969 67.6569C71.8598 67.6569 72.3581 67.8274 72.6832 68.7011C73.2757 70.3024 74.1568 71.7698 75.0622 73.2159C78.9239 79.3837 84.2927 84.0598 90.0169 88.3828C90.6702 88.876 91.2626 88.7298 91.8764 88.261C94.6018 86.1909 97.2451 84.0324 99.7153 81.6578C104.75 76.8143 108.56 71.1975 110.662 64.4786C112.935 57.227 112.534 49.7531 112.531 42.3127ZM2.90473 10.3867C3.005 8.94676 2.91385 7.49765 2.93815 6.05159C2.9655 4.44418 4.01069 3.26906 5.5967 3.0316C6.08283 2.95854 6.57504 2.90374 7.06422 2.90374C34.9379 2.89765 62.8086 2.89765 90.6823 2.9007C92.9854 2.9007 94.2007 3.57959 94.6109 5.3727C95.0454 7.26933 94.702 9.23293 94.7749 11.163C94.7871 11.4857 94.5623 11.5101 94.3222 11.5071C94.0579 11.504 93.7905 11.5071 93.5262 11.5071C78.6414 11.5071 63.7535 11.5071 48.8687 11.5071C33.9444 11.5071 19.0201 11.4979 4.0988 11.5284C3.19641 11.5314 2.83485 11.3883 2.90473 10.3867ZM3.1083 15.0628C3.05057 14.11 3.41213 13.8634 4.24768 13.9943C4.28414 14.0004 4.32364 13.9943 4.3601 13.9943C34.0872 13.9943 63.8143 14.0004 93.5444 13.9669C94.62 13.9669 94.8539 14.2774 94.8023 15.2759C94.7203 16.8681 94.7172 18.4725 94.8023 20.0677C94.8539 21.0328 94.5592 21.2398 93.6173 21.2398C78.6961 21.2063 63.7748 21.2155 48.8535 21.2155C34.0842 21.2155 19.3148 21.1972 4.54543 21.2489C3.30579 21.252 3.03234 20.8836 3.10526 19.742C3.20553 18.1863 3.19945 16.6185 3.1083 15.0628ZM70.1614 65.3919C49.0905 65.3919 28.0166 65.3919 6.94572 65.395C5.7395 65.395 4.60012 65.2336 3.74027 64.2777C3.19034 63.6658 2.92296 62.9534 2.92296 62.1101C2.93208 49.5948 2.93815 37.0795 2.91081 24.5612C2.90777 23.7758 3.16907 23.6388 3.88004 23.6418C33.8745 23.657 63.869 23.657 93.8634 23.654C94.3648 23.654 94.8084 23.5566 94.7992 24.3603C94.7628 28.4214 94.781 32.4856 94.781 36.7447C93.6599 36.0627 92.7879 35.4021 91.9857 34.6562C91.2444 33.9682 90.576 33.9652 89.7981 34.6593C84.3686 39.4967 78.0094 41.6217 70.7721 41.1041C69.818 41.0372 69.1405 41.3842 69.1435 42.3828C69.1678 49.2112 68.7212 56.0762 70.5837 62.7768C70.8146 63.611 71.0395 64.4482 71.2977 65.3889C70.8875 65.3919 70.5229 65.3919 70.1614 65.3919ZM106.74 67.9218C103.945 74.0805 99.5087 78.9088 94.4073 83.1983C93.4198 84.0294 92.3838 84.7996 91.3902 85.6246C91.056 85.9016 90.8251 85.9869 90.4271 85.6794C83.9949 80.7202 78.2342 75.1916 74.8495 67.5899C72.6224 62.5881 71.7261 57.3183 71.5864 51.8903C71.5225 49.3817 71.5894 46.8701 71.5469 44.3616C71.5347 43.6918 71.6593 43.4392 72.4037 43.4605C79.1518 43.6583 85.1221 41.5304 90.3481 37.2805C90.7643 36.9425 91.0044 36.9578 91.3933 37.2622C96.3518 41.1924 102.131 42.8181 108.323 43.2656C110.112 43.3935 110.112 43.3965 110.112 45.1836C110.112 46.59 110.112 47.9965 110.112 50.1032C110.286 55.8114 109.414 62.031 106.74 67.9218Z" fill="#1C1C1C"/>
<path id="Vector_2" d="M36.2079 39.3535C29.001 39.3444 21.7941 39.3444 14.5871 39.3535C12.5271 39.3566 11.5913 40.2821 11.5822 42.3309C11.567 45.5244 11.5761 48.7149 11.5792 51.9084C11.5822 54.3439 12.5028 55.2754 14.9335 55.2815C18.4246 55.2876 21.9126 55.2846 25.4036 55.2846C28.9676 55.2846 32.5346 55.3028 36.0986 55.2785C38.1646 55.2633 39.1734 54.2251 39.1764 52.1915C39.1825 48.9219 39.1825 45.6553 39.1764 42.3857C39.1734 40.3582 38.2011 39.3535 36.2079 39.3535ZM35.9102 52.8613C32.3827 52.8247 28.8521 52.8461 25.3246 52.8461C21.8336 52.8461 18.3425 52.8247 14.8515 52.8643C14.0858 52.8735 13.8883 52.633 13.8974 51.8962C13.9339 48.8184 13.9339 45.7375 13.8974 42.6597C13.8883 41.9077 14.1253 41.6825 14.8667 41.6855C21.8852 41.7098 28.9038 41.7098 35.9254 41.6855C36.6546 41.6825 36.8156 41.9534 36.8126 42.6201C36.7883 45.7375 36.7852 48.8549 36.8156 51.9723C36.8217 52.6664 36.612 52.8704 35.9102 52.8613Z" fill="#1C1C1C"/>
<path id="Vector_3" d="M98.6974 56.1189C96.9929 55.9149 97.3484 54.8098 97.3393 53.7808C97.3363 53.3638 97.3423 52.9436 97.3211 52.5266C97.1661 49.3696 94.6291 46.6632 91.6211 46.4409C88.0632 46.1761 85.192 48.2736 84.5054 51.5798C84.2623 52.7549 84.3717 53.927 84.3413 55.099C84.3291 55.4978 84.3474 55.7414 83.7913 55.851C82.3086 56.1432 81.7648 56.8708 81.7587 58.393C81.7435 61.5104 81.7435 64.6248 81.7587 67.7422C81.7678 69.511 82.6429 70.3695 84.4324 70.3847C86.5562 70.3999 88.68 70.3877 90.8038 70.3877C93.0036 70.3877 95.2033 70.406 97.4031 70.3816C98.983 70.3634 99.9796 69.4622 99.9948 67.9766C100.028 64.707 100.013 61.4404 100.001 58.1708C100.001 57.221 99.5725 56.2254 98.6974 56.1189ZM86.772 55.0442C86.8175 54.4019 86.778 53.7534 86.7841 53.108C86.8023 50.6391 88.4886 48.8673 90.8342 48.849C93.1464 48.8338 94.9268 50.6208 94.9998 53.0441C95.0848 55.8023 95.0848 55.8023 92.2865 55.8023C91.7943 55.8023 91.3021 55.8023 90.8099 55.8023C89.71 55.8023 88.6101 55.7658 87.5133 55.8175C86.8935 55.8449 86.7294 55.6257 86.772 55.0442ZM96.923 67.9492C94.9147 67.9218 92.9064 67.9401 90.898 67.9401C90.898 67.9675 90.898 67.9949 90.898 68.0223C88.9261 68.0223 86.9573 67.9949 84.9884 68.0375C84.317 68.0527 84.0648 67.9035 84.0769 67.1699C84.1225 64.5121 84.1286 61.8514 84.0739 59.1937C84.0557 58.3504 84.3474 58.2134 85.1161 58.2256C89.0142 58.2895 92.9155 58.4235 96.8106 58.1342C97.4061 58.0916 97.5975 58.2773 97.6006 58.8832C97.6097 61.6566 97.6431 64.4269 97.71 67.2003C97.7252 67.8305 97.4851 67.9553 96.923 67.9492Z" fill="#1C1C1C"/>
<path id="Vector_4" d="M91.612 61.5165C91.0894 61.1542 90.5456 61.1512 90.0534 61.5805C89.5976 61.9793 89.4943 63.8394 89.9136 64.3812C90.2964 64.8744 90.7856 65.0814 91.4024 64.7496C92.1073 64.3721 92.0769 63.7237 92.0526 63.2853C92.0343 62.5181 92.1741 61.9062 91.612 61.5165Z" fill="#1C1C1C"/>
</g>
</g>
</svg>
